<?xml version="1.0" encoding="utf-8"?>
<!-- Generator: Adobe Illustrator 25.3.1, SVG Export Plug-In . SVG Version: 6.00 Build 0)  -->
<svg version="1.1" id="Layer_1" xmlns="http://www.w3.org/2000/svg" xmlns:xlink="http://www.w3.org/1999/xlink" x="0px" y="0px" width="207" height="62"
	 viewBox="0 0 207 62" style="enable-background:new 0 0 207 62;" xml:space="preserve">
<style type="text/css">
	.st0{fill-rule:evenodd;clip-rule:evenodd;fill:#FFFFFF;}
	.st1{fill:#79BA43;}
	.st2{fill:#00A994;}
	.st3{fill:#B7CB33;}
</style>
<g>
	<g>
		<g>
			<path class="st0" d="M128.9,7.8c0,0-0.1,0-0.2,0c-8.6,0.1-13.9,6.6-13.9,14.8c0,7.8,4.8,14.4,13.6,14.4h0c0.1,0,0.2,0,0.2,0
				c8.5-0.1,13.9-5.9,13.9-14.9C142.6,14.5,138,7.8,128.9,7.8z M128.8,31L128.8,31L128.8,31c-3.7,0-6-3.5-6-8.6
				c0-4.9,2.2-8.6,5.9-8.6l0,0c3.7,0,5.9,3.7,5.9,8.6C134.6,27.5,132.5,31,128.8,31z M159.1,7.8c-0.1,0-0.1,0-0.2,0
				c-8.6,0.1-13.9,6.6-13.9,14.8c0,7.8,4.8,14.4,13.6,14.4h0c0.1,0,0.2,0,0.3,0c8.5-0.1,13.9-5.9,13.9-14.9
				C172.9,14.5,168.2,7.8,159.1,7.8z M159,31L159,31c-3.7,0-6-3.5-6-8.6c0-4.9,2.2-8.6,5.9-8.6c3.7,0,5.9,3.7,5.9,8.6
				C164.8,27.5,162.7,31,159,31z M191.9,21.2L191.9,21.2c3.3-1.3,4.6-3.7,4.6-6c0-2.8-1.6-4.8-3.8-5.8c-1.9-0.9-3.9-1.3-6.9-1.4
				c-0.5,0-1.1,0-1.7,0c-3.5,0-7.2,0.3-8.9,0.6v27.7c1.5,0.3,4,0.5,7.5,0.5c1.1,0,2.2,0,3.2-0.1c4.1-0.3,6.8-1.1,8.5-2.4
				c1.9-1.4,3.2-3.5,3.2-6.2C197.5,24.8,195.4,22.2,191.9,21.2z M182.6,13.6c0.5-0.1,1.2-0.2,2.5-0.2c0.2,0,0.5,0,0.7,0
				c2.1,0.2,3.1,1.2,3.1,2.7c0,1.5-1,2.5-3.1,2.8c-0.5,0.1-1,0.1-1.6,0.1h-1.5V13.6z M185.8,31.3c-0.3,0-0.6,0.1-1,0.1
				c-1,0-1.6,0-2.2-0.1v-6.8h1.8c0.5,0,0.9,0,1.3,0.1c2.2,0.3,3.7,1.2,3.7,3.2C189.5,30,187.9,31,185.8,31.3z M80.1,8.2
				c0,2.5,0,28.3,0,28.3h7.6c0,0,0-23.3,0-23.7C87.7,9.3,85.8,8.2,80.1,8.2z M69.1,19.4c-3.6-1.3-5.1-1.9-5.1-3.3
				c0-1.3,1.3-2.1,3.6-2.1c2.8,0,5.6,1,6.1,1.3c1.1-2.9,1.7-7.5-6-7.5c-7.1,0-11.4,3.9-11.4,8.9c0,4.2,3.2,6.8,8,8.5
				c3.2,1.1,4.5,1.9,4.5,3.2c0,1.4-1.3,2.3-3.9,2.3c-2.8,0-5.6-0.9-7.3-1.8l-1.4,6.3c1.6,0.8,4.9,1.7,8.3,1.7c8.3,0,12-4.2,12-9
				C76.4,24,74.2,21.3,69.1,19.4z M107.6,30.6c-5.2,0-8.3-3.2-8.3-8.3c0-5.8,3.8-8.3,8.1-8.3c2.3,0,4.6,0.7,5.2,1
				c1.3-3.1,1-7.2-5.6-7.2c-8.4,0-15.7,5.1-15.7,15c0,7.5,4.7,14.1,15.2,14.1c3.4,0,6-0.6,7.1-1.2l-1-5.9
				C111.5,30.3,109.4,30.6,107.6,30.6z"/>
			<g>
				<path class="st1" d="M9.2,1C8.8,1,8.4,1.1,8.1,1.3C7.2,1.8,6.8,2.7,6.8,3.6c0,0.4,0.1,0.8,0.3,1.2L19.9,27l4.2-7.2l0,0l6.8-11.7
					L26.7,1H9.2z"/>
				<path class="st2" d="M26.7,1l10.9,18.9h7.7h0.6l0,0l8.7-15.1c0.2-0.3,0.3-0.7,0.3-1.1c0-1.4-1.1-2.5-2.5-2.6H26.7z"/>
				<path class="st3" d="M45.2,19.8H24L19.9,27l8.8,15.1c0.2,0.3,0.5,0.6,0.8,0.8c0.4,0.2,0.8,0.4,1.3,0.4c0.8,0,1.7-0.4,2.2-1.2
					l12.9-22.3H45.2z"/>
			</g>
		</g>
	</g>
	<g>
		<path class="st2" d="M121.6,50.5h-5.3v4.1h5.9v2.1h-8.4v-14h8.1v2.1h-5.6v3.6h5.3V50.5z"/>
		<path class="st2" d="M124.6,49.7c0-1.2,0-2.1-0.1-3h2.2l0.1,1.5h0.1c0.4-0.8,1.5-1.7,3.2-1.7c1.8,0,3.6,1.1,3.6,4.3v6h-2.6V51
			c0-1.5-0.5-2.6-1.9-2.6c-1,0-1.7,0.7-2,1.5c-0.1,0.2-0.1,0.5-0.1,0.8v5.9h-2.6V49.7z"/>
		<path class="st2" d="M146,46.6c0,0.7-0.1,1.5-0.1,2.9v5.7c0,2.1-0.4,3.6-1.5,4.6c-1.1,0.9-2.5,1.2-3.9,1.2c-1.3,0-2.7-0.3-3.5-0.8
			l0.6-1.9c0.6,0.4,1.7,0.8,2.9,0.8c1.7,0,2.9-0.9,2.9-3.1v-0.9h0c-0.6,0.9-1.6,1.5-2.9,1.5c-2.5,0-4.3-2.1-4.3-4.9
			c0-3.3,2.2-5.3,4.6-5.3c1.5,0,2.4,0.7,2.9,1.6h0l0.1-1.3H146z M143.3,50.7c0-0.2,0-0.5-0.1-0.7c-0.3-0.9-1-1.6-2.1-1.6
			c-1.4,0-2.5,1.2-2.5,3.3c0,1.7,0.9,3.1,2.5,3.1c1,0,1.8-0.6,2.1-1.5c0.1-0.3,0.1-0.6,0.1-0.9V50.7z"/>
		<path class="st2" d="M150.7,52.4c0.1,1.8,1.5,2.6,3.1,2.6c1.2,0,2-0.2,2.8-0.5l0.4,1.8c-0.9,0.4-2.1,0.6-3.5,0.6
			c-3.3,0-5.2-2-5.2-5.1c0-2.8,1.7-5.4,4.9-5.4c3.3,0,4.4,2.7,4.4,4.9c0,0.5,0,0.9-0.1,1.1H150.7z M155.1,50.6
			c0-0.9-0.4-2.5-2.1-2.5c-1.6,0-2.2,1.4-2.3,2.5H155.1z"/>
		<path class="st2" d="M167.3,56.4c-0.5,0.2-1.6,0.5-2.9,0.5c-3.2,0-5.2-2-5.2-5.1c0-3,2.1-5.4,5.6-5.4c0.9,0,1.9,0.2,2.5,0.5
			l-0.5,1.9c-0.4-0.2-1-0.4-1.9-0.4c-2,0-3.1,1.4-3.1,3.3c0,2.1,1.3,3.3,3.1,3.3c0.9,0,1.5-0.2,2-0.4L167.3,56.4z"/>
		<path class="st2" d="M169.4,49.9c0-1.4,0-2.3-0.1-3.3h2.2l0.1,1.9h0.1c0.5-1.4,1.7-2.2,2.8-2.2c0.2,0,0.4,0,0.6,0.1v2.4
			c-0.2,0-0.4-0.1-0.7-0.1c-1.2,0-2.1,0.8-2.3,1.9c0,0.2-0.1,0.5-0.1,0.8v5.2h-2.6V49.9z"/>
		<path class="st2" d="M178.7,52.4c0.1,1.8,1.5,2.6,3.1,2.6c1.2,0,2-0.2,2.8-0.5l0.4,1.8c-0.9,0.4-2.1,0.6-3.5,0.6
			c-3.3,0-5.2-2-5.2-5.1c0-2.8,1.7-5.4,4.9-5.4c3.3,0,4.4,2.7,4.4,4.9c0,0.5,0,0.9-0.1,1.1H178.7z M183.1,50.6
			c0-0.9-0.4-2.5-2.1-2.5c-1.6,0-2.2,1.4-2.3,2.5H183.1z"/>
		<path class="st2" d="M197.1,42v11.9c0,1,0,2.2,0.1,2.8h-2.3l-0.1-1.6h0c-0.6,1.1-1.8,1.8-3.3,1.8c-2.4,0-4.3-2.1-4.3-5.2
			c0-3.4,2.1-5.4,4.5-5.4c1.4,0,2.4,0.6,2.8,1.3h0V42H197.1z M194.6,50.9c0-0.2,0-0.5-0.1-0.7c-0.2-1-1-1.8-2.2-1.8
			c-1.6,0-2.6,1.5-2.6,3.3c0,1.8,0.9,3.2,2.5,3.2c1,0,2-0.7,2.2-1.8c0.1-0.2,0.1-0.5,0.1-0.7V50.9z"/>
	</g>
</g>
</svg>
